<svg width="36" height="36" viewBox="0 0 36 36" fill="none" xmlns="http://www.w3.org/2000/svg">
<g clip-path="url(#clip0_118_16574)">
<path d="M8 9.4325C8 8.64125 8.6575 8 9.46875 8H26.5312C27.3425 8 28 8.64125 28 9.4325V26.5675C28 27.3588 27.3425 28 26.5312 28H9.46875C8.6575 28 8 27.3588 8 26.5675V9.4325ZM14.1787 24.7425V15.7113H11.1775V24.7425H14.1787ZM12.6788 14.4775C13.725 14.4775 14.3762 13.785 14.3762 12.9175C14.3575 12.0313 13.7263 11.3575 12.6988 11.3575C11.6713 11.3575 11 12.0325 11 12.9175C11 13.785 11.6513 14.4775 12.6587 14.4775H12.6788ZM18.8138 24.7425V19.6988C18.8138 19.4288 18.8337 19.1587 18.9137 18.9662C19.13 18.4275 19.6238 17.8687 20.4538 17.8687C21.54 17.8687 21.9737 18.6963 21.9737 19.9113V24.7425H24.975V19.5625C24.975 16.7875 23.495 15.4975 21.52 15.4975C19.9275 15.4975 19.2138 16.3725 18.8138 16.9887V17.02H18.7938L18.8138 16.9887V15.7113H15.8137C15.8512 16.5588 15.8137 24.7425 15.8137 24.7425H18.8138Z" fill="#334155"/>
</g>
<defs>
<clipPath id="clip0_118_16574">
<rect width="20" height="20" fill="white" transform="translate(8 8)"/>
</clipPath>
</defs>
</svg>
