<svg width="36" height="36" viewBox="0 0 36 36" fill="none" xmlns="http://www.w3.org/2000/svg">
<g clip-path="url(#clip0_118_16583)">
<path fill-rule="evenodd" clip-rule="evenodd" d="M18 8C12.48 8 8 12.48 8 18C8 23.52 12.48 28 18 28C23.51 28 28 23.52 28 18C28 12.48 23.51 8 18 8ZM24.605 12.61C25.8362 14.109 26.5177 15.984 26.5363 17.9238C26.2538 17.87 23.4338 17.295 20.5925 17.6525C20.5275 17.5125 20.4725 17.36 20.4075 17.2088C20.2337 16.7963 20.0388 16.3737 19.8438 15.9712C22.9888 14.6925 24.4212 12.8488 24.6062 12.6088L24.605 12.61ZM18 9.475C20.1688 9.475 22.1537 10.2875 23.6625 11.6225C23.51 11.84 22.2188 13.5637 19.1825 14.7025C17.7825 12.1325 16.2325 10.0275 15.9937 9.7025C16.6515 9.5495 17.3247 9.47316 18 9.475ZM14.3662 10.2775C15.5111 11.8636 16.5685 13.5111 17.5337 15.2125C13.5425 16.275 10.0175 16.2538 9.6375 16.2538C9.91277 14.9611 10.4827 13.7494 11.3029 12.7131C12.1231 11.6767 13.1714 10.8424 14.3662 10.2775ZM9.45375 18.0125V17.75C9.8225 17.7625 13.9662 17.8163 18.2287 16.5362C18.4775 17.0125 18.705 17.5013 18.9225 17.9888L18.585 18.0863C14.1825 19.5075 11.84 23.39 11.6437 23.7162C10.2338 22.1506 9.45367 20.1182 9.45375 18.0112V18.0125ZM18 26.5462C16.1022 26.5478 14.2584 25.9141 12.7625 24.7463C12.9125 24.4313 14.6487 21.0913 19.4637 19.41C19.4862 19.3988 19.4963 19.3988 19.5188 19.3888C20.3301 21.4843 20.94 23.6525 21.34 25.8638C20.2852 26.3178 19.1484 26.5501 18 26.5462ZM22.7625 25.0825C22.675 24.5613 22.2188 22.0675 21.1025 18.9975C23.7813 18.575 26.1237 19.2688 26.4162 19.3663C26.2344 20.5197 25.8157 21.623 25.1867 22.6067C24.5577 23.5905 23.7319 24.4334 22.7613 25.0825H22.7625Z" fill="#334155"/>
</g>
<defs>
<clipPath id="clip0_118_16583">
<rect width="20" height="20" fill="white" transform="translate(8 8)"/>
</clipPath>
</defs>
</svg>
