<svg width="108" height="103" viewBox="0 0 108 103" fill="none" xmlns="http://www.w3.org/2000/svg">
<path d="M106.16 41.2578C107.567 48.9756 98.9328 46.9199 98.9328 46.9199C95.3193 37.2546 89.5378 38.1562 89.5378 38.1562C94.0641 41.2938 94.4064 43.9626 94.4064 43.9626C82.3489 35.8481 65.9552 42.3758 59.7172 45.4413C56.2179 40.7529 49.1431 30.2581 51.6535 25.4976C54.9627 19.2585 61.6951 22.8289 61.6951 22.8289C75.3122 22.6125 74.5514 17.9962 74.5514 17.9962C70.938 20.665 60.2878 17.9962 60.2878 17.9962C69.5306 17.9962 73.4484 14.4259 73.4484 14.4259C66.5638 16.0488 58.8804 9.08832 58.8804 9.08832C56.0658 -4.5801 43.0573 1.22627 43.0573 1.22627C51.1971 -0.10811 49.029 8.07851 49.029 8.07851C38.8353 11.5046 39.7862 16.9864 39.7862 16.9864C43.0953 12.6948 45.91 12.3702 45.91 12.3702C36.5911 24.8124 45.5677 42.1233 48.2303 46.6314C43.3616 49.8411 31.9507 56.9097 26.8158 54.4574C20.2355 51.3198 24.0011 44.9364 24.0011 44.9364C23.8489 32.0253 18.9803 32.7466 18.9803 32.7466C21.795 36.1727 18.9803 46.2707 18.9803 46.2707C18.9803 37.5071 15.2147 33.7924 15.2147 33.7924C16.9263 40.3201 9.58527 47.6051 9.58527 47.6051C-4.83053 50.2739 1.29334 62.6079 1.29334 62.6079C-0.114012 54.8901 8.52025 56.9458 8.52025 56.9458C12.1337 66.6111 17.9152 65.7095 17.9152 65.7095C13.3889 62.5719 13.0466 59.9031 13.0466 59.9031C25.7888 68.4864 43.3996 60.6965 48.7247 57.9556C52.3001 62.8243 58.9565 72.8502 56.4841 77.5025C53.175 83.7417 46.4425 80.1713 46.4425 80.1713C32.8255 80.3156 33.5862 84.9318 33.5862 84.9318C37.1997 82.263 47.8499 84.9318 47.8499 84.9318C38.607 84.9318 34.6893 88.5022 34.6893 88.5022C41.5739 86.8793 49.2572 93.8397 49.2572 93.8397C52.0719 107.508 65.0804 101.702 65.0804 101.702C56.9406 103.036 59.1087 94.8495 59.1087 94.8495C69.3024 91.4234 68.3515 85.9416 68.3515 85.9416C65.0423 90.2333 62.2276 90.5579 62.2276 90.5579C71.3564 78.4041 62.9503 61.5621 60.0976 56.6212C65.2706 53.1951 75.7306 47.0642 80.5612 49.3723C87.1415 52.5099 83.3759 58.8933 83.3759 58.8933C83.528 71.8044 88.3967 71.0831 88.3967 71.0831C85.582 67.6569 88.3967 57.5589 88.3967 57.5589C88.3967 66.3226 92.1623 70.0372 92.1623 70.0372C90.4507 63.5095 97.7917 56.2245 97.7917 56.2245C112.284 53.5918 106.16 41.2578 106.16 41.2578Z" fill="url(#paint0_linear_17_164)"/>
<defs>
<linearGradient id="paint0_linear_17_164" x1="53.7228" y1="0.00114822" x2="53.7228" y2="102.927" gradientUnits="userSpaceOnUse">
<stop stop-color="#57E9FF"/>
<stop offset="1" stop-color="#2E00FF"/>
</linearGradient>
</defs>
</svg>
