<svg width="24" height="25" viewBox="0 0 24 25" fill="none" xmlns="http://www.w3.org/2000/svg">
<g clip-path="url(#clip0_118_16647)">
<path d="M23.9372 9.70541C23.7792 9.21944 23.3482 8.87538 22.8402 8.82942L15.9121 8.20044L13.1741 1.79017C12.972 1.31922 12.512 1.01526 12 1.01526C11.4881 1.01526 11.0279 1.31922 10.827 1.79017L8.08902 8.20044L1.15982 8.82942C0.651881 8.87629 0.221759 9.22035 0.0628208 9.70541C-0.0952019 10.1914 0.0507355 10.7244 0.434897 11.0613L5.67198 15.6535L4.12783 22.4545C4.01485 22.9546 4.20895 23.4717 4.62387 23.7716C4.8469 23.9337 5.10893 24.0146 5.37187 24.0146C5.59783 24.0146 5.82396 23.9545 6.02593 23.8337L12 20.2616L17.973 23.8337C18.4112 24.0955 18.9622 24.0716 19.3762 23.7716C19.7911 23.4717 19.9852 22.9546 19.8722 22.4545L18.3281 15.6535L23.5652 11.0613C23.9491 10.7244 24.0953 10.1925 23.9372 9.70541V9.70541Z" fill="#E85B5B"/>
</g>
<defs>
<clipPath id="clip0_118_16647">
<rect width="24" height="24" fill="white" transform="translate(0 0.5)"/>
</clipPath>
</defs>
</svg>
