<svg width="36" height="36" viewBox="0 0 36 36" fill="none" xmlns="http://www.w3.org/2000/svg">
<g clip-path="url(#clip0_118_16580)">
<path d="M28.0001 18.0613C28.0001 12.5038 23.5226 7.99878 18.0001 7.99878C12.4751 8.00003 7.99756 12.5038 7.99756 18.0625C7.99756 23.0838 11.6551 27.2463 16.4351 28.0013V20.97H13.8976V18.0625H16.4376V15.8438C16.4376 13.3225 17.9313 11.93 20.2151 11.93C21.3101 11.93 22.4538 12.1263 22.4538 12.1263V14.6013H21.1926C19.9513 14.6013 19.5638 15.3775 19.5638 16.1738V18.0613H22.3363L21.8938 20.9688H19.5626V28C24.3426 27.245 28.0001 23.0825 28.0001 18.0613Z" fill="#334155"/>
</g>
<defs>
<clipPath id="clip0_118_16580">
<rect width="20" height="20" fill="white" transform="translate(8 8)"/>
</clipPath>
</defs>
</svg>
