<svg width="36" height="36" viewBox="0 0 36 36" fill="none" xmlns="http://www.w3.org/2000/svg">
<g clip-path="url(#clip0_118_16577)">
<path d="M18 8C15.2862 8 14.945 8.0125 13.8788 8.06C12.8125 8.11 12.0862 8.2775 11.45 8.525C10.7823 8.77541 10.1777 9.16925 9.67875 9.67875C9.16925 10.1777 8.77541 10.7823 8.525 11.45C8.2775 12.085 8.10875 12.8125 8.06 13.875C8.0125 14.9437 8 15.2838 8 18.0013C8 20.7163 8.0125 21.0563 8.06 22.1225C8.11 23.1875 8.2775 23.9137 8.525 24.55C8.78125 25.2075 9.1225 25.765 9.67875 26.3212C10.2338 26.8775 10.7913 27.22 11.4488 27.475C12.0863 27.7225 12.8113 27.8912 13.8763 27.94C14.9438 27.9875 15.2837 28 18 28C20.7163 28 21.055 27.9875 22.1225 27.94C23.1863 27.89 23.915 27.7225 24.5513 27.475C25.2185 27.2244 25.8227 26.8306 26.3212 26.3212C26.8775 25.765 27.2187 25.2075 27.475 24.55C27.7212 23.9137 27.89 23.1875 27.94 22.1225C27.9875 21.0563 28 20.7163 28 18C28 15.2837 27.9875 14.9438 27.94 13.8763C27.89 12.8125 27.7212 12.085 27.475 11.45C27.2246 10.7823 26.8308 10.1777 26.3212 9.67875C25.8223 9.16925 25.2177 8.77541 24.55 8.525C23.9125 8.2775 23.185 8.10875 22.1212 8.06C21.0537 8.0125 20.715 8 17.9975 8H18ZM17.1037 9.8025H18.0013C20.6713 9.8025 20.9875 9.81125 22.0412 9.86C23.0162 9.90375 23.5462 10.0675 23.8987 10.2038C24.365 10.385 24.6987 10.6025 25.0487 10.9525C25.3987 11.3025 25.615 11.635 25.7963 12.1025C25.9338 12.4538 26.0963 12.9838 26.14 13.9588C26.1888 15.0125 26.1988 15.3288 26.1988 17.9975C26.1988 20.6663 26.1888 20.9837 26.14 22.0375C26.0963 23.0125 25.9325 23.5413 25.7963 23.8938C25.6348 24.3274 25.3791 24.7197 25.0475 25.0425C24.6975 25.3925 24.365 25.6088 23.8975 25.79C23.5475 25.9275 23.0175 26.09 22.0412 26.135C20.9875 26.1825 20.6713 26.1938 18.0013 26.1938C15.3313 26.1938 15.0138 26.1825 13.96 26.135C12.985 26.09 12.4562 25.9275 12.1037 25.79C11.6698 25.6291 11.277 25.3738 10.9537 25.0425C10.6216 24.7195 10.3654 24.3267 10.2038 23.8925C10.0675 23.5412 9.90375 23.0113 9.86 22.0363C9.8125 20.9825 9.8025 20.6662 9.8025 17.995C9.8025 15.3237 9.8125 15.01 9.86 13.9562C9.905 12.9812 10.0675 12.4513 10.205 12.0988C10.3863 11.6325 10.6037 11.2987 10.9537 10.9487C11.3037 10.5987 11.6362 10.3825 12.1037 10.2013C12.4562 10.0638 12.985 9.90125 13.96 9.85625C14.8825 9.81375 15.24 9.80125 17.1037 9.8V9.8025ZM23.3387 11.4625C23.1812 11.4625 23.0251 11.4935 22.8795 11.5538C22.7339 11.6142 22.6017 11.7025 22.4902 11.814C22.3788 11.9254 22.2904 12.0577 22.2301 12.2033C22.1698 12.3489 22.1387 12.5049 22.1387 12.6625C22.1387 12.8201 22.1698 12.9761 22.2301 13.1217C22.2904 13.2673 22.3788 13.3996 22.4902 13.511C22.6017 13.6225 22.7339 13.7108 22.8795 13.7712C23.0251 13.8315 23.1812 13.8625 23.3387 13.8625C23.657 13.8625 23.9622 13.7361 24.1873 13.511C24.4123 13.286 24.5387 12.9808 24.5387 12.6625C24.5387 12.3442 24.4123 12.039 24.1873 11.814C23.9622 11.5889 23.657 11.4625 23.3387 11.4625ZM18.0013 12.865C17.3201 12.8544 16.6436 12.9794 16.0112 13.2327C15.3788 13.486 14.8031 13.8626 14.3177 14.3405C13.8322 14.8185 13.4467 15.3882 13.1836 16.0166C12.9204 16.6449 12.7849 17.3194 12.7849 18.0006C12.7849 18.6819 12.9204 19.3563 13.1836 19.9847C13.4467 20.613 13.8322 21.1828 14.3177 21.6607C14.8031 22.1387 15.3788 22.5153 16.0112 22.7686C16.6436 23.0219 17.3201 23.1469 18.0013 23.1363C19.3494 23.1152 20.6353 22.5649 21.5812 21.6041C22.5272 20.6432 23.0574 19.349 23.0574 18.0006C23.0574 16.6523 22.5272 15.358 21.5812 14.3972C20.6353 13.4364 19.3494 12.886 18.0013 12.865ZM18.0013 14.6663C18.439 14.6663 18.8726 14.7525 19.277 14.92C19.6815 15.0876 20.049 15.3331 20.3586 15.6427C20.6681 15.9523 20.9137 16.3198 21.0812 16.7242C21.2488 17.1287 21.335 17.5622 21.335 18C21.335 18.4378 21.2488 18.8713 21.0812 19.2758C20.9137 19.6802 20.6681 20.0477 20.3586 20.3573C20.049 20.6669 19.6815 20.9124 19.277 21.08C18.8726 21.2475 18.439 21.3337 18.0013 21.3337C17.1171 21.3337 16.2691 20.9825 15.6439 20.3573C15.0187 19.7321 14.6675 18.8842 14.6675 18C14.6675 17.1158 15.0187 16.2679 15.6439 15.6427C16.2691 15.0175 17.1171 14.6663 18.0013 14.6663Z" fill="#334155"/>
</g>
<defs>
<clipPath id="clip0_118_16577">
<rect width="20" height="20" fill="white" transform="translate(8 8)"/>
</clipPath>
</defs>
</svg>
