<svg width="372" height="597" viewBox="0 0 372 597" fill="none" xmlns="http://www.w3.org/2000/svg">
<g clip-path="url(#clip0_118_16736)">
<mask id="path-1-inside-1_118_16736" fill="white">
<path d="M0 120C0 85.7584 27.7583 58 62 58H310C344.242 58 372 85.7583 372 120V477C372 511.242 344.242 539 310 539H62C27.7584 539 0 511.242 0 477V120Z"/>
</mask>
<path d="M0 120C0 85.7584 27.7583 58 62 58H310C344.242 58 372 85.7583 372 120V477C372 511.242 344.242 539 310 539H62C27.7584 539 0 511.242 0 477V120Z" fill="url(#paint0_linear_118_16736)"/>
<g style="mix-blend-mode:difference" filter="url(#filter0_f_118_16736)">
<ellipse cx="211.624" cy="145.765" rx="211.624" ry="145.765" transform="matrix(0.874387 0.485228 -0.412191 0.911097 19.4226 301.857)" fill="#1E1B4B"/>
</g>
<g opacity="0.6" filter="url(#filter1_f_118_16736)">
<ellipse cx="186" cy="63.2699" rx="146.272" ry="41.6803" fill="#6366F1"/>
</g>
<g opacity="0.6" filter="url(#filter2_f_118_16736)">
<ellipse cx="186" cy="63.3818" rx="146.32" ry="70.6364" fill="#6366F1"/>
</g>
</g>
<path d="M62 59H310V57H62V59ZM371 120V477H373V120H371ZM310 538H62V540H310V538ZM1 477V120H-1V477H1ZM62 538C28.3106 538 1 510.689 1 477H-1C-1 511.794 27.2061 540 62 540V538ZM371 477C371 510.689 343.689 538 310 538V540C344.794 540 373 511.794 373 477H371ZM310 59C343.689 59 371 86.3106 371 120H373C373 85.2061 344.794 57 310 57V59ZM62 57C27.2061 57 -1 85.2061 -1 120H1C1 86.3106 28.3106 59 62 59V57Z" fill="white" fill-opacity="0.9" style="mix-blend-mode:overlay" mask="url(#path-1-inside-1_118_16736)"/>
<mask id="mask0_118_16736" style="mask-type:alpha" maskUnits="userSpaceOnUse" x="52" y="11" width="268" height="575">
<path fill-rule="evenodd" clip-rule="evenodd" d="M94.125 11.4808C70.8686 11.4808 52.0156 30.3279 52.0156 53.5769V543.423C52.0156 566.672 70.8686 585.519 94.125 585.519H277.875C301.131 585.519 319.984 566.672 319.984 543.423V53.5769C319.984 30.3279 301.131 11.4808 277.875 11.4808H94.125Z" fill="black"/>
</mask>
<g mask="url(#mask0_118_16736)">
<rect x="52.0156" y="11.4808" width="267.969" height="574.039" fill="url(#paint1_linear_118_16736)"/>
</g>
<path fill-rule="evenodd" clip-rule="evenodd" d="M94.125 2.29615H277.875C306.205 2.29615 329.172 25.2553 329.172 53.5769V543.423C329.172 571.745 306.205 594.704 277.875 594.704H94.125C65.7945 594.704 42.8281 571.745 42.8281 543.423V53.5769C42.8281 25.2553 65.7945 2.29615 94.125 2.29615ZM94.125 11.4808C70.8686 11.4808 52.0156 30.3279 52.0156 53.5769V543.423C52.0156 566.672 70.8686 585.519 94.125 585.519H277.875C301.131 585.519 319.984 566.672 319.984 543.423V53.5769C319.984 30.3279 301.131 11.4808 277.875 11.4808H94.125Z" fill="black"/>
<path fill-rule="evenodd" clip-rule="evenodd" d="M277.875 0H94.125C64.526 0 40.5312 23.9872 40.5312 53.5769V543.423C40.5312 573.013 64.526 597 94.125 597H277.875C307.474 597 331.469 573.013 331.469 543.423V53.5769C331.469 23.9872 307.474 0 277.875 0ZM42.8281 53.5769C42.8281 25.2553 65.7945 2.29615 94.125 2.29615H277.875C306.205 2.29615 329.172 25.2553 329.172 53.5769V543.423C329.172 571.745 306.205 594.704 277.875 594.704H94.125C65.7945 594.704 42.8281 571.745 42.8281 543.423V53.5769Z" fill="#64748B"/>
<path d="M331.469 137.769V137.769C332.314 137.769 333 138.455 333 139.3V185.223C333 186.068 332.314 186.754 331.469 186.754V186.754V137.769Z" fill="#64748B"/>
<path d="M39 78.0692C39 77.2238 39.6856 76.5385 40.5312 76.5385V76.5385V94.9077V94.9077C39.6856 94.9077 39 94.2223 39 93.3769V78.0692Z" fill="#64748B"/>
<path d="M39 108.685C39 107.839 39.6856 107.154 40.5312 107.154V107.154V143.892V143.892C39.6856 143.892 39 143.207 39 142.362V108.685Z" fill="#64748B"/>
<path d="M39 151.546C39 150.701 39.6856 150.015 40.5312 150.015V150.015V186.754V186.754C39.6856 186.754 39 186.068 39 185.223V151.546Z" fill="#64748B"/>
<path d="M145.422 42.8615C145.422 36.5209 150.564 31.3808 156.906 31.3808H214.328C220.671 31.3808 225.812 36.5209 225.812 42.8615V42.8615C225.812 49.2022 220.671 54.3423 214.328 54.3423H156.906C150.564 54.3423 145.422 49.2022 145.422 42.8615V42.8615Z" fill="black"/>
<ellipse cx="214.328" cy="42.8615" rx="6.125" ry="6.12308" fill="#27272A"/>
<path d="M149.25 569.063C149.25 568.429 149.764 567.915 150.398 567.915H221.602C222.236 567.915 222.75 568.429 222.75 569.063V569.063C222.75 569.698 222.236 570.212 221.602 570.212H150.398C149.764 570.212 149.25 569.698 149.25 569.063V569.063Z" fill="black"/>
<g clip-path="url(#clip1_118_16736)">
<path d="M212.362 266.429C213.056 270.25 208.798 269.232 208.798 269.232C207.015 264.447 204.164 264.893 204.164 264.893C206.396 266.447 206.565 267.768 206.565 267.768C200.618 263.75 192.532 266.982 189.455 268.5C187.729 266.179 184.239 260.982 185.478 258.625C187.11 255.536 190.431 257.304 190.431 257.304C197.147 257.197 196.772 254.911 196.772 254.911C194.99 256.232 189.736 254.911 189.736 254.911C194.295 254.911 196.228 253.143 196.228 253.143C192.832 253.947 189.042 250.5 189.042 250.5C187.654 243.732 181.238 246.607 181.238 246.607C185.253 245.947 184.183 250 184.183 250C179.155 251.697 179.624 254.411 179.624 254.411C181.256 252.286 182.645 252.125 182.645 252.125C178.048 258.286 182.476 266.857 183.789 269.089C181.388 270.679 175.759 274.179 173.227 272.964C169.981 271.411 171.838 268.25 171.838 268.25C171.763 261.857 169.362 262.214 169.362 262.214C170.75 263.911 169.362 268.911 169.362 268.911C169.362 264.572 167.505 262.732 167.505 262.732C168.349 265.964 164.728 269.572 164.728 269.572C157.618 270.893 160.638 277 160.638 277C159.944 273.179 164.203 274.197 164.203 274.197C165.985 278.982 168.837 278.536 168.837 278.536C166.604 276.982 166.435 275.661 166.435 275.661C172.72 279.911 181.407 276.054 184.033 274.697C185.797 277.107 189.08 282.072 187.86 284.375C186.228 287.464 182.907 285.697 182.907 285.697C176.191 285.768 176.566 288.054 176.566 288.054C178.348 286.732 183.602 288.054 183.602 288.054C179.043 288.054 177.11 289.822 177.11 289.822C180.506 289.018 184.296 292.464 184.296 292.464C185.684 299.232 192.1 296.357 192.1 296.357C188.085 297.018 189.155 292.964 189.155 292.964C194.183 291.268 193.714 288.554 193.714 288.554C192.082 290.679 190.693 290.839 190.693 290.839C195.196 284.822 191.05 276.482 189.643 274.036C192.194 272.339 197.353 269.304 199.736 270.447C202.982 272 201.124 275.161 201.124 275.161C201.199 281.554 203.601 281.197 203.601 281.197C202.213 279.5 203.601 274.5 203.601 274.5C203.601 278.839 205.458 280.679 205.458 280.679C204.614 277.447 208.235 273.839 208.235 273.839C215.383 272.536 212.362 266.429 212.362 266.429Z" fill="white"/>
</g>
<path d="M129.208 341V318.6H134.36L141.208 332.584L147.992 318.6H153.144V341H148.824V325.96L142.904 337.864H139.48L133.528 325.96V341H129.208ZM165.2 341.384C163.578 341.384 162.138 341.043 160.88 340.36C159.642 339.656 158.672 338.685 157.968 337.448C157.285 336.189 156.944 334.739 156.944 333.096C156.944 331.411 157.285 329.928 157.968 328.648C158.672 327.347 159.642 326.333 160.88 325.608C162.117 324.861 163.557 324.488 165.2 324.488C166.8 324.488 168.197 324.84 169.392 325.544C170.586 326.248 171.514 327.197 172.176 328.392C172.837 329.587 173.168 330.941 173.168 332.456C173.168 332.669 173.168 332.915 173.168 333.192C173.168 333.448 173.146 333.715 173.104 333.992H160.016V331.368H168.816C168.752 330.323 168.378 329.501 167.696 328.904C167.034 328.307 166.202 328.008 165.2 328.008C164.474 328.008 163.802 328.179 163.184 328.52C162.565 328.84 162.074 329.341 161.712 330.024C161.37 330.707 161.2 331.571 161.2 332.616V333.544C161.2 334.419 161.36 335.187 161.68 335.848C162.021 336.488 162.49 336.989 163.088 337.352C163.685 337.693 164.378 337.864 165.168 337.864C165.957 337.864 166.608 337.693 167.12 337.352C167.653 337.011 168.048 336.573 168.304 336.04H172.72C172.421 337.043 171.92 337.949 171.216 338.76C170.512 339.571 169.648 340.211 168.624 340.68C167.6 341.149 166.458 341.384 165.2 341.384ZM183.874 341.384C182.402 341.384 181.079 341.021 179.906 340.296C178.754 339.571 177.847 338.568 177.186 337.288C176.524 336.008 176.194 334.568 176.194 332.968C176.194 331.325 176.524 329.875 177.186 328.616C177.868 327.336 178.796 326.333 179.97 325.608C181.164 324.861 182.498 324.488 183.97 324.488C185.122 324.488 186.135 324.701 187.01 325.128C187.884 325.555 188.588 326.163 189.122 326.952V317.96H193.442V341H189.602L189.122 338.792C188.802 339.24 188.396 339.667 187.906 340.072C187.436 340.477 186.871 340.797 186.21 341.032C185.548 341.267 184.77 341.384 183.874 341.384ZM184.898 337.608C185.751 337.608 186.498 337.416 187.138 337.032C187.799 336.627 188.311 336.072 188.674 335.368C189.036 334.664 189.218 333.853 189.218 332.936C189.218 332.019 189.036 331.208 188.674 330.504C188.311 329.8 187.799 329.256 187.138 328.872C186.498 328.467 185.751 328.264 184.898 328.264C184.087 328.264 183.351 328.467 182.69 328.872C182.028 329.256 181.506 329.8 181.122 330.504C180.759 331.208 180.578 332.008 180.578 332.904C180.578 333.843 180.759 334.664 181.122 335.368C181.506 336.072 182.018 336.627 182.658 337.032C183.319 337.416 184.066 337.608 184.898 337.608ZM197.771 341V318.6H212.491V322.088H202.091V327.944H211.531V331.304H202.091V337.512H212.491V341H197.771ZM222.923 341.384C221.451 341.384 220.171 341.149 219.083 340.68C217.995 340.211 217.141 339.56 216.523 338.728C215.904 337.896 215.552 336.957 215.467 335.912H219.755C219.861 336.317 220.043 336.691 220.299 337.032C220.555 337.352 220.896 337.608 221.323 337.8C221.749 337.992 222.261 338.088 222.859 338.088C223.435 338.088 223.904 338.013 224.267 337.864C224.629 337.693 224.896 337.469 225.067 337.192C225.259 336.915 225.355 336.627 225.355 336.328C225.355 335.88 225.227 335.539 224.971 335.304C224.715 335.048 224.341 334.845 223.851 334.696C223.36 334.547 222.763 334.397 222.059 334.248C221.291 334.099 220.533 333.917 219.787 333.704C219.061 333.469 218.411 333.181 217.835 332.84C217.259 332.499 216.8 332.061 216.459 331.528C216.117 330.995 215.947 330.333 215.947 329.544C215.947 328.584 216.203 327.731 216.715 326.984C217.227 326.216 217.973 325.608 218.955 325.16C219.936 324.712 221.12 324.488 222.507 324.488C224.448 324.488 225.984 324.925 227.115 325.8C228.245 326.675 228.917 327.88 229.131 329.416H225.067C224.939 328.925 224.651 328.541 224.203 328.264C223.776 327.965 223.2 327.816 222.475 327.816C221.707 327.816 221.12 327.955 220.715 328.232C220.309 328.509 220.107 328.872 220.107 329.32C220.107 329.619 220.235 329.885 220.491 330.12C220.768 330.355 221.152 330.557 221.643 330.728C222.133 330.877 222.731 331.027 223.435 331.176C224.672 331.432 225.76 331.731 226.699 332.072C227.637 332.392 228.373 332.861 228.907 333.48C229.44 334.077 229.707 334.952 229.707 336.104C229.707 337.128 229.429 338.045 228.875 338.856C228.32 339.645 227.531 340.264 226.507 340.712C225.504 341.16 224.309 341.384 222.923 341.384ZM233.458 341V324.872H237.778V341H233.458ZM235.634 322.664C234.866 322.664 234.226 322.44 233.714 321.992C233.223 321.523 232.978 320.936 232.978 320.232C232.978 319.528 233.223 318.952 233.714 318.504C234.226 318.035 234.866 317.8 235.634 317.8C236.423 317.8 237.063 318.035 237.554 318.504C238.066 318.952 238.322 319.528 238.322 320.232C238.322 320.936 238.066 321.523 237.554 321.992C237.063 322.44 236.423 322.664 235.634 322.664Z" fill="white"/>
<defs>
<filter id="filter0_f_118_16736" x="-250.223" y="169.467" width="789.208" height="735.765" filterUnits="userSpaceOnUse" color-interpolation-filters="sRGB">
<feFlood flood-opacity="0" result="BackgroundImageFix"/>
<feBlend mode="normal" in="SourceGraphic" in2="BackgroundImageFix" result="shape"/>
<feGaussianBlur stdDeviation="100" result="effect1_foregroundBlur_118_16736"/>
</filter>
<filter id="filter1_f_118_16736" x="-60.2717" y="-78.4104" width="492.544" height="283.361" filterUnits="userSpaceOnUse" color-interpolation-filters="sRGB">
<feFlood flood-opacity="0" result="BackgroundImageFix"/>
<feBlend mode="normal" in="SourceGraphic" in2="BackgroundImageFix" result="shape"/>
<feGaussianBlur stdDeviation="50" result="effect1_foregroundBlur_118_16736"/>
</filter>
<filter id="filter2_f_118_16736" x="-160.32" y="-207.255" width="692.64" height="541.273" filterUnits="userSpaceOnUse" color-interpolation-filters="sRGB">
<feFlood flood-opacity="0" result="BackgroundImageFix"/>
<feBlend mode="normal" in="SourceGraphic" in2="BackgroundImageFix" result="shape"/>
<feGaussianBlur stdDeviation="100" result="effect1_foregroundBlur_118_16736"/>
</filter>
<linearGradient id="paint0_linear_118_16736" x1="197.738" y1="58" x2="197.738" y2="539" gradientUnits="userSpaceOnUse">
<stop stop-color="#0F172A"/>
<stop offset="1" stop-color="#020617"/>
</linearGradient>
<linearGradient id="paint1_linear_118_16736" x1="331.086" y1="-177.187" x2="-24.3542" y2="716.477" gradientUnits="userSpaceOnUse">
<stop stop-color="#0064FF"/>
<stop offset="1" stop-color="#87D9FF"/>
</linearGradient>
<clipPath id="clip0_118_16736">
<path d="M0 120C0 85.7584 27.7583 58 62 58H310C344.242 58 372 85.7583 372 120V477C372 511.242 344.242 539 310 539H62C27.7584 539 0 511.242 0 477V120Z" fill="white"/>
</clipPath>
<clipPath id="clip1_118_16736">
<rect width="53" height="51" fill="white" transform="translate(160 246)"/>
</clipPath>
</defs>
</svg>
